<?xml version="1.0" standalone="no"?>
<!DOCTYPE svg PUBLIC "-//W3C//DTD SVG 20010904//EN"
 "http://www.w3.org/TR/2001/REC-SVG-20010904/DTD/svg10.dtd">
<svg version="1.0" xmlns="http://www.w3.org/2000/svg"
 width="766.000000pt" height="703.000000pt" viewBox="0 0 766.000000 703.000000"
 preserveAspectRatio="xMidYMid meet">
<metadata>
Created by potrace 1.16, written by Peter Selinger 2001-2019
</metadata>
<g transform="translate(0.000000,703.000000) scale(0.100000,-0.100000)"
fill="#000000" stroke="none">
<path d="M3723 6796 c-136 -44 -225 -169 -224 -316 0 -131 72 -243 190 -299
73 -34 191 -36 263 -3 128 57 208 191 194 326 -18 170 -146 293 -315 302 -38
2 -83 -2 -108 -10z m199 -42 c175 -59 248 -283 143 -441 -43 -64 -91 -97 -171
-118 -133 -34 -264 29 -332 160 -22 42 -27 63 -27 130 0 67 5 88 27 131 32 61
94 117 152 138 55 19 152 20 208 0z"/>
<path d="M3770 6741 c-159 -33 -249 -194 -195 -352 64 -188 322 -236 451 -85
65 75 82 200 39 289 -49 104 -183 171 -295 148z m124 -33 c59 -18 138 -99 155
-161 50 -176 -106 -343 -279 -298 -187 49 -246 294 -98 413 66 54 142 69 222
46z"/>
<path d="M3789 6614 c-62 -39 -58 -106 7 -137 30 -15 34 -21 34 -56 0 -46 -14
-60 -39 -37 -18 17 -31 12 -31 -11 0 -8 14 -19 31 -25 17 -6 34 -20 39 -32 l9
-21 0 22 c1 14 12 28 29 37 61 31 57 112 -6 134 -24 8 -31 17 -35 44 l-4 33
-1 -33 c-2 -29 -5 -33 -24 -30 -17 2 -24 10 -26 33 -3 43 12 63 37 48 15 -10
20 -10 24 0 3 9 11 9 35 0 18 -6 32 -8 32 -4 0 13 -24 31 -42 31 -9 0 -21 6
-25 14 -6 11 -15 9 -44 -10z"/>
<path d="M3315 5723 c42 -250 147 -370 408 -468 27 -10 55 -28 62 -39 23 -35
55 -166 61 -252 7 -83 -3 -234 -14 -234 -4 0 -24 51 -46 113 -21 61 -53 135
-71 162 -44 69 -138 153 -211 187 -63 30 -188 58 -255 58 -37 0 -39 -1 -39
-32 1 -45 42 -159 80 -217 73 -115 174 -179 355 -226 165 -42 196 -92 194
-309 -1 -154 -10 -225 -25 -205 -6 8 -19 39 -29 69 -41 128 -105 217 -202 283
-101 69 -166 90 -302 95 l-114 4 6 -42 c3 -24 22 -76 41 -116 71 -142 214
-249 368 -274 255 -41 248 -33 248 -336 0 -241 -6 -250 -61 -97 -20 55 -48
121 -63 146 -61 104 -210 204 -341 228 -67 12 -201 7 -216 -8 -13 -13 28 -126
69 -190 82 -127 222 -205 418 -232 92 -13 115 -26 154 -89 22 -36 26 -50 17
-58 -7 -6 -122 -30 -257 -54 -135 -23 -251 -45 -257 -48 -9 -3 -13 -31 -13
-92 0 -85 1 -88 25 -94 20 -5 25 -13 25 -39 0 -18 -6 -42 -14 -52 -13 -18 -15
-17 -29 17 -17 40 -47 61 -73 51 -9 -3 -31 -39 -49 -78 -57 -125 -116 -175
-338 -289 -95 -49 -151 -70 -237 -90 -61 -15 -114 -25 -117 -22 -3 3 10 38 30
78 21 43 41 102 48 143 10 61 18 76 55 118 32 35 45 60 50 92 11 78 -14 137
-71 161 -32 13 -33 16 -45 98 l-13 84 35 44 c50 61 69 102 75 163 8 72 -2 114
-37 166 -76 116 -226 123 -337 17 l-31 -30 -54 26 c-207 101 -489 9 -592 -192
-20 -39 -27 -36 -41 21 -7 25 -17 42 -25 42 -16 0 -17 -9 -5 -69 7 -37 7 -38
-16 -30 -41 14 -84 11 -84 -6 0 -8 10 -16 23 -18 29 -4 28 -21 -5 -52 -74 -70
-89 -212 -38 -369 23 -73 25 -89 16 -127 -21 -82 -7 -158 37 -208 25 -27 91
-56 133 -56 30 0 38 -5 51 -32 20 -42 98 -129 132 -147 14 -8 26 -19 26 -25
-1 -6 -24 -27 -51 -46 -64 -45 -129 -134 -168 -233 -62 -155 -110 -483 -114
-772 l-2 -170 545 -5 545 -5 158 -34 158 -35 92 18 c51 9 152 31 225 48 l133
32 257 -57 c141 -32 275 -57 297 -57 22 0 150 25 285 55 135 30 256 55 269 55
14 0 109 -20 212 -45 103 -25 203 -45 222 -45 19 0 110 16 203 35 l169 35 468
0 467 0 0 168 c0 163 -18 385 -41 517 -6 36 -9 71 -6 79 3 8 29 16 64 20 104
12 212 76 250 149 17 34 19 120 3 162 -6 17 -38 82 -70 146 -71 139 -90 210
-90 344 0 130 -17 304 -36 380 -36 138 -129 267 -252 349 -131 86 -261 126
-416 126 -326 0 -577 -228 -593 -540 -3 -52 -11 -104 -17 -115 -6 -12 -11 -76
-12 -155 0 -124 -14 -209 -39 -251 -8 -12 -90 33 -182 98 -85 60 -140 124
-178 208 -18 39 -40 76 -48 84 -32 26 -68 -7 -79 -72 -2 -10 -7 -18 -13 -18
-5 1 -11 34 -13 75 -3 67 -1 76 18 86 19 10 21 19 18 93 l-3 81 -160 28 c-378
65 -347 57 -340 86 10 38 43 81 68 86 12 3 69 14 126 25 141 27 217 66 307
155 58 58 76 85 103 150 18 43 35 94 38 112 5 31 4 33 -31 40 -79 14 -225 -15
-325 -66 -58 -29 -150 -118 -189 -181 -12 -20 -40 -83 -61 -141 -42 -112 -75
-183 -91 -193 -16 -10 -13 289 4 350 18 68 52 132 79 148 12 8 61 22 109 31
157 29 275 89 352 177 45 51 102 168 112 226 5 36 4 41 -17 46 -75 20 -229 -6
-317 -53 -71 -37 -180 -143 -215 -209 -15 -26 -43 -95 -63 -152 -19 -57 -40
-108 -46 -114 -7 -7 -9 53 -5 190 5 213 13 253 64 322 18 25 33 33 71 38 269
36 420 124 498 290 18 38 35 84 39 101 6 31 5 31 -41 38 -164 22 -309 -21
-422 -128 -73 -68 -114 -134 -152 -242 -55 -160 -64 -155 -49 27 16 200 45
305 95 350 11 10 63 38 116 63 161 76 256 181 293 321 17 68 20 141 5 150 -15
9 -103 -13 -167 -41 -168 -74 -264 -210 -296 -424 -24 -158 -49 -192 -60 -82
-4 32 -16 87 -27 122 -11 36 -25 105 -30 154 -8 65 -18 106 -41 152 -70 141
-266 274 -406 274 l-44 0 6 -37z m170 -30 c141 -59 229 -154 274 -295 24 -74
8 -76 -41 -6 -76 105 -258 247 -258 200 0 -5 25 -26 55 -46 67 -46 172 -157
203 -214 27 -48 21 -51 -51 -20 -117 49 -219 134 -262 218 -27 53 -55 144 -55
178 0 23 3 24 37 17 21 -4 65 -18 98 -32z m870 -180 c-14 -115 -74 -213 -174
-286 -63 -47 -177 -104 -187 -94 -9 9 58 114 112 175 26 30 72 72 102 95 67
49 53 62 -18 17 -72 -46 -121 -97 -180 -189 -30 -44 -55 -79 -57 -78 -2 2 1
28 7 58 21 111 100 224 201 290 53 33 142 68 178 69 23 0 23 -2 16 -57z m-994
-307 c160 -34 291 -130 354 -260 63 -131 58 -139 -30 -47 -79 82 -180 157
-261 192 -108 46 -92 7 19 -48 95 -47 191 -120 254 -194 46 -54 54 -74 26 -65
-10 3 -58 17 -108 31 -49 15 -111 38 -138 53 -100 54 -217 212 -234 316 -5 34
-4 36 23 36 16 0 59 -7 95 -14z m1143 -174 c3 -5 -13 -45 -34 -89 -44 -90
-122 -171 -202 -211 -77 -38 -278 -76 -278 -53 0 14 99 100 163 142 32 21 90
50 130 65 40 14 79 33 87 40 12 12 10 14 -14 14 -68 0 -263 -109 -342 -192
-61 -64 -68 -55 -25 31 62 121 170 208 307 246 54 15 200 20 208 7z m-1101
-367 c32 -8 81 -27 109 -41 91 -46 204 -177 224 -260 6 -27 2 -24 -57 32 -75
71 -126 102 -243 149 -91 37 -106 41 -106 25 0 -5 42 -29 93 -53 51 -24 117
-59 147 -79 67 -42 172 -137 165 -148 -3 -4 -54 3 -115 15 -198 42 -316 128
-386 280 -19 42 -32 80 -29 85 9 15 134 12 198 -5z m1093 -105 c-11 -58 -61
-145 -120 -207 -71 -76 -181 -135 -299 -159 -121 -24 -124 -18 -35 68 61 60
100 87 185 130 59 30 118 57 131 60 35 9 28 32 -9 24 -102 -20 -262 -117 -338
-203 -25 -29 -49 -53 -53 -53 -4 0 1 23 12 51 73 184 265 316 464 318 l69 1
-7 -30z m-1063 -391 c124 -42 209 -115 261 -224 41 -86 34 -97 -26 -39 -67 64
-108 93 -183 132 -123 62 -180 78 -173 46 2 -10 36 -28 93 -48 111 -40 156
-68 243 -151 l67 -64 -35 0 c-66 0 -192 28 -249 55 -76 37 -179 142 -219 223
-37 74 -39 88 -14 95 34 10 176 -5 235 -25z m1099 -4 c-7 -45 -82 -183 -126
-232 -61 -68 -158 -116 -296 -147 -58 -13 -107 -21 -109 -19 -8 6 101 112 164
160 69 52 129 84 203 108 29 10 51 23 49 29 -16 45 -247 -76 -365 -191 -30
-30 -56 -52 -58 -50 -12 12 85 178 130 222 92 91 232 146 356 142 49 -2 55 -4
52 -22z m-2017 -138 c111 -63 114 -239 6 -347 -125 -125 -480 -189 -769 -139
-46 8 -67 8 -75 0 -7 -7 -6 -49 6 -148 10 -76 17 -144 17 -150 0 -20 -25 -15
-46 8 -43 47 -106 59 -181 34 -20 -6 -24 -1 -45 66 -41 136 -26 265 41 340 27
31 47 43 76 48 34 5 43 13 70 60 46 78 111 140 180 172 76 36 187 52 264 40
67 -11 131 -35 131 -50 0 -6 -18 -22 -40 -36 -39 -25 -54 -55 -26 -55 8 0 54
33 103 72 48 40 104 80 123 90 48 25 116 23 165 -5z m3235 -128 c143 -36 266
-116 352 -231 94 -123 128 -255 128 -498 0 -192 14 -253 99 -427 75 -154 86
-189 71 -243 -14 -51 -40 -81 -97 -112 -47 -26 -177 -59 -199 -51 -6 2 -16 22
-23 43 -34 116 -126 257 -205 318 l-29 22 45 40 c25 22 60 62 77 89 28 43 37
50 76 55 53 8 102 40 132 85 18 26 23 48 23 93 0 123 -40 160 -168 156 -76 -3
-82 -1 -173 44 -168 83 -264 181 -313 319 -28 76 -49 86 -67 32 -7 -22 -35
-60 -65 -90 -70 -67 -139 -94 -256 -99 -48 -1 -92 -5 -97 -8 -4 -3 -11 -24
-15 -46 -7 -44 -19 -51 -36 -20 -11 21 7 132 36 212 34 98 109 193 193 248
151 96 314 118 511 69z m-1915 -369 c9 -78 29 -80 46 -4 7 31 18 58 25 61 6 2
91 -10 187 -26 96 -17 179 -31 183 -31 4 0 4 -4 -2 -9 -5 -5 -98 -28 -207 -52
l-198 -42 -187 37 c-280 57 -284 57 -277 64 13 14 400 79 412 70 6 -5 14 -36
18 -68z m-1335 65 c0 -3 7 -51 16 -108 9 -56 16 -160 17 -232 1 -213 -37 -321
-152 -427 -83 -78 -155 -109 -261 -116 -105 -6 -171 8 -269 55 -89 43 -181
129 -201 187 -12 37 -13 38 -52 32 -28 -5 -52 -1 -82 12 -119 53 -93 262 33
262 27 0 42 -8 71 -40 40 -43 63 -49 98 -24 27 19 28 50 6 197 -9 59 -14 110
-12 113 3 3 46 0 94 -7 189 -25 473 8 609 71 58 28 85 35 85 25z m3042 -77
c40 -75 130 -175 198 -218 27 -17 86 -47 131 -66 45 -19 87 -42 94 -50 10 -14
15 -14 50 5 50 26 75 26 108 0 46 -36 54 -120 18 -187 -19 -36 -59 -56 -112
-55 l-49 1 -35 -58 c-94 -154 -241 -226 -447 -218 -90 3 -111 7 -171 35 -125
59 -215 170 -247 303 -16 67 -16 223 0 319 l12 71 52 0 c61 0 151 22 206 50
21 11 65 44 97 75 32 30 59 54 60 55 1 0 17 -28 35 -62z m-1952 -66 l255 -58
3 -62 c3 -59 2 -62 -20 -61 -13 0 -133 28 -268 62 l-245 62 -3 58 c-2 42 0 57
10 56 7 0 128 -26 268 -57z m810 -6 c0 -48 -3 -54 -22 -59 -67 -17 -479 -107
-488 -107 -7 0 -10 22 -8 57 l3 58 230 51 c127 29 242 53 258 53 26 1 27 -1
27 -53z m-793 -156 c124 -28 230 -53 235 -56 4 -3 8 -104 8 -225 0 -174 -3
-219 -13 -219 -21 0 -457 89 -468 95 -10 7 -13 438 -2 448 8 9 -17 14 240 -43z
m751 -173 l2 -217 -22 -10 c-22 -10 -428 -100 -448 -100 -6 0 -10 83 -10 220
0 190 2 221 15 227 29 11 440 101 450 99 6 -2 11 -85 13 -219z m-1107 156 c8
-21 7 -41 -4 -81 -20 -73 -4 -79 42 -14 12 17 27 32 32 32 6 0 8 -60 7 -152
l-3 -153 -28 -3 c-20 -2 -31 -11 -38 -30 -12 -32 -78 -102 -96 -102 -12 0
-163 222 -163 240 0 5 25 28 55 52 63 49 109 109 130 169 26 73 48 87 66 42z
m1271 -91 c26 -57 54 -96 103 -144 l66 -67 -66 -115 c-37 -64 -72 -116 -78
-116 -7 0 -29 16 -49 35 -28 25 -38 42 -38 64 0 47 -10 61 -41 61 l-29 0 0
125 c0 71 4 125 9 125 5 0 19 -14 32 -31 27 -39 41 -26 27 26 -12 46 -3 115
15 115 7 0 28 -35 49 -78z m507 -144 c21 -72 63 -171 84 -202 15 -21 17 -28 6
-24 -7 3 -44 15 -81 27 -88 29 -93 36 -74 103 8 29 20 72 26 96 6 23 14 42 19
42 4 0 13 -19 20 -42z m-1982 -169 c77 -115 96 -160 74 -173 -4 -3 -34 0 -65
6 -43 9 -71 9 -123 0 -38 -7 -147 -26 -243 -42 -96 -17 -182 -33 -191 -36 -10
-3 -18 -20 -22 -45 -3 -22 -8 -44 -12 -47 -4 -4 -75 -8 -158 -10 -125 -2 -149
0 -132 10 43 29 74 67 85 109 7 24 14 49 16 56 1 6 38 35 81 64 65 44 90 55
153 65 111 19 222 59 335 118 55 29 105 52 110 52 6 -1 47 -58 92 -127z m1770
31 c94 -54 155 -79 273 -114 47 -14 107 -43 160 -78 74 -47 88 -60 98 -94 14
-48 65 -99 112 -112 29 -8 17 -10 -65 -10 -55 0 -113 3 -130 7 -28 6 -30 10
-35 60 -4 33 -12 58 -22 65 -9 7 -61 18 -115 25 -54 7 -143 22 -198 32 -115
22 -178 24 -259 8 -31 -7 -59 -9 -62 -6 -5 5 29 70 113 210 19 31 36 57 39 57
2 0 43 -23 91 -50z m-1339 -74 c75 -18 190 -44 255 -56 l117 -23 0 -63 c0 -55
-3 -64 -18 -64 -20 0 -499 106 -525 116 -32 12 -15 124 18 124 9 0 78 -15 153
-34z m950 -32 l3 -62 -68 -15 c-388 -87 -465 -101 -474 -86 -13 21 -11 95 4
108 15 11 492 121 517 118 11 -2 16 -18 18 -63z m-2526 -91 c9 -10 23 -32 31
-49 20 -39 72 -89 108 -104 16 -7 29 -16 29 -21 0 -16 -44 -9 -130 22 -122 44
-120 43 -120 26 0 -41 179 -87 368 -94 117 -5 142 -8 142 -21 0 -8 7 -89 16
-180 11 -113 12 -168 5 -175 -6 -6 -64 -10 -143 -10 -143 1 -268 21 -419 69
-119 38 -121 9 -2 -36 116 -43 248 -63 426 -64 l167 0 0 -51 c0 -39 5 -56 20
-70 19 -17 20 -31 20 -202 l0 -183 -462 2 -463 3 2 170 c5 330 63 659 141 794
53 94 166 191 222 191 15 0 34 -8 42 -17z m1683 -63 c127 -28 238 -53 248 -56
15 -5 17 -25 17 -228 0 -122 -2 -225 -5 -228 -4 -4 -294 57 -411 86 -24 6 -24
8 -24 135 0 104 3 131 15 141 12 10 15 29 13 79 l-3 66 -50 10 c-59 12 -75 21
-75 42 0 11 6 14 23 10 12 -3 126 -29 252 -57z m-1350 20 c-27 -109 -146 -127
-241 -35 -24 23 -44 46 -44 51 0 5 63 9 145 9 l146 0 -6 -25z m2165 22 c0 -15
-24 -32 -45 -32 -11 0 -31 -7 -43 -16 -27 -18 -30 -75 -8 -148 14 -46 25 -260
14 -271 -8 -8 -427 -82 -433 -77 -10 10 -5 431 5 437 9 6 474 113 498 114 6 1
12 -3 12 -7z m1490 -52 c82 -65 153 -211 185 -382 26 -143 45 -357 45 -525 l0
-163 -415 0 -415 0 0 189 c0 180 1 189 20 194 17 4 20 14 20 55 l0 49 168 6
c100 3 192 12 229 21 93 23 203 69 203 83 0 18 -9 17 -94 -12 -132 -44 -213
-57 -368 -59 -80 0 -150 2 -154 6 -6 7 20 281 33 334 4 19 14 22 111 28 59 3
136 13 172 22 80 18 179 54 186 66 14 21 -11 20 -84 -5 -43 -14 -102 -29 -132
-32 l-55 -6 45 24 c46 24 90 77 90 107 0 24 19 38 66 48 46 11 87 -3 144 -48z
m-2765 25 c66 -14 135 -25 154 -25 57 0 29 -10 -121 -46 -163 -38 -193 -40
-268 -18 -40 12 -73 14 -121 10 l-66 -7 0 31 c0 16 1 30 1 30 6 4 258 48 276
49 14 0 79 -11 145 -24z m1770 -6 c61 -12 113 -25 117 -28 4 -4 -1 -21 -12
-39 -17 -28 -24 -32 -43 -25 -26 9 -88 9 -172 -2 -45 -5 -86 -2 -165 14 -133
27 -184 41 -175 49 8 8 255 49 305 51 19 1 85 -9 145 -20z m668 -12 c54 1 87
-3 87 -9 0 -6 -17 -27 -38 -48 -65 -65 -156 -67 -211 -4 -17 19 -31 44 -31 55
0 20 3 20 53 12 28 -4 91 -7 140 -6z m-2903 -83 c0 -49 2 -55 18 -49 109 42
141 49 166 37 14 -6 26 -18 26 -27 0 -15 -50 -44 -112 -64 -40 -13 -51 -31
-20 -31 11 0 45 9 78 20 56 19 60 20 72 3 7 -9 11 -22 9 -28 -2 -5 -38 -21
-80 -34 -44 -14 -77 -30 -77 -38 0 -17 28 -16 80 2 52 18 80 19 80 2 0 -30
-30 -50 -96 -67 -82 -19 -83 -36 -1 -32 91 6 65 -34 -38 -57 -62 -14 -206 -29
-221 -24 -7 2 -19 69 -29 161 -18 152 -18 156 1 166 10 6 43 35 74 63 30 29
58 53 63 53 4 0 7 -25 7 -56z m748 11 c2 -21 0 -41 -5 -46 -9 -9 -354 -89
-385 -89 -16 0 -19 6 -16 42 l3 42 120 27 c66 15 152 36 190 47 39 11 75 19
80 18 6 -1 11 -20 13 -41z m1029 19 c47 -14 133 -36 192 -48 l106 -22 3 -39
c2 -20 0 -41 -5 -45 -11 -10 -377 73 -397 89 -19 16 -21 62 -4 79 15 15 6 16
105 -14z m659 -25 c15 -22 43 -54 62 -69 l35 -28 -26 -148 c-15 -81 -31 -152
-36 -157 -20 -20 -267 31 -288 60 -22 30 -14 34 48 27 49 -5 61 -4 57 6 -2 8
-27 19 -56 25 -58 13 -82 29 -82 55 0 28 10 30 61 9 57 -22 82 -24 77 -7 -2 6
-33 23 -69 37 -41 17 -65 33 -67 45 -7 34 13 36 81 10 38 -15 71 -24 74 -20
11 11 -16 32 -66 50 -66 23 -78 39 -52 65 18 18 23 18 63 6 24 -7 56 -18 71
-24 49 -19 59 -15 52 23 -7 33 7 76 24 76 5 0 21 -18 37 -41z m-2622 -111 c2
-24 12 -101 21 -172 9 -70 13 -132 8 -135 -16 -14 -95 -33 -103 -24 -15 16
-47 330 -37 358 5 11 20 15 56 15 l50 0 5 -42z m904 -152 c-2 -96 -6 -177 -9
-180 -8 -8 -307 -66 -341 -66 l-28 0 0 170 c0 168 0 170 23 175 57 14 333 73
345 74 11 1 13 -34 10 -173z m1187 135 l170 -37 3 -177 c2 -167 1 -177 -16
-177 -16 0 -271 49 -339 65 -23 5 -23 7 -23 185 0 165 1 180 18 180 9 0 94
-18 187 -39z m742 21 c10 -6 8 -44 -10 -173 l-22 -164 -47 1 c-26 0 -50 2 -52
5 -4 4 32 301 40 327 4 13 71 16 91 4z m-2332 -232 l0 -165 -40 0 c-50 1 -347
55 -359 66 -4 4 14 10 40 14 102 13 215 35 235 46 26 13 69 109 69 152 0 37
17 59 40 55 13 -3 15 -29 15 -168z m1830 1 c23 -46 52 -60 172 -85 l108 -23
-75 -17 c-152 -35 -222 -48 -236 -42 -11 4 -14 34 -14 154 0 156 10 205 22
104 4 -33 14 -74 23 -91z m-957 -145 c7 -4 12 -29 12 -62 0 -47 -2 -54 -20
-54 -26 0 -472 99 -480 106 -3 3 7 16 23 28 17 13 27 31 27 47 0 14 2 28 5 31
6 6 414 -84 433 -96z m476 50 c8 -19 22 -39 32 -44 11 -6 16 -13 13 -16 -5 -6
-450 -106 -469 -106 -6 0 -10 29 -10 65 l0 64 33 6 c17 3 102 19 187 34 203
38 197 38 214 -3z m-1683 -111 c110 -24 204 -47 209 -50 15 -9 12 -85 -2 -85
-7 0 -109 21 -225 46 l-213 47 0 44 c0 32 4 43 15 43 9 0 106 -20 216 -45z
m679 2 l0 -43 -202 -44 c-112 -24 -209 -45 -216 -48 -10 -3 -12 7 -10 44 l3
48 185 42 c102 23 197 42 213 43 25 1 27 -1 27 -42z m1318 2 l202 -42 0 -49
c0 -26 -4 -48 -9 -48 -28 0 -405 91 -417 101 -23 19 -12 78 16 79 3 0 96 -18
208 -41z m657 -4 l0 -40 -185 -42 c-102 -23 -197 -44 -212 -47 -27 -5 -28 -4
-28 38 l0 44 183 46 c100 24 196 44 212 43 28 -2 30 -5 30 -42z m-1675 -45
c123 -27 225 -50 227 -50 7 0 3 -449 -4 -453 -7 -4 -81 12 -400 84 l-93 21 0
224 0 224 23 0 c13 0 124 -22 247 -50z m755 3 c4 -27 8 -127 9 -223 l1 -175
-230 -52 c-126 -29 -240 -52 -252 -53 l-23 0 0 220 c0 201 2 221 18 227 22 9
432 101 453 102 13 1 19 -11 24 -46z m-1720 -89 c94 -20 178 -41 188 -46 15
-8 17 -27 17 -178 0 -93 -4 -171 -8 -174 -4 -2 -93 15 -197 38 l-190 43 -3
181 c-2 143 0 181 10 177 7 -2 90 -20 183 -41z m617 -131 c-2 -98 -5 -180 -7
-182 -6 -5 -344 -81 -361 -81 -11 0 -14 35 -14 175 0 149 2 177 15 182 17 6
343 81 360 82 6 1 9 -62 7 -176z m1383 137 c98 -22 179 -40 181 -40 2 0 4 -83
4 -185 0 -102 -3 -185 -7 -185 -5 1 -91 20 -193 43 l-185 42 -3 183 c-2 149 0
182 11 182 8 0 94 -18 192 -40z m600 -146 l0 -178 -165 -37 c-91 -21 -177 -40
-193 -43 l-27 -6 2 183 3 182 180 41 c99 23 185 41 190 40 6 -2 10 -70 10
-182z"/>
<path d="M4294 3238 c-3 -12 -5 -85 -3 -162 l4 -141 -25 -3 c-14 -1 -82 -14
-152 -29 -90 -19 -128 -31 -128 -40 0 -9 7 -12 18 -9 9 3 82 19 161 36 80 17
148 33 153 36 9 6 11 221 2 288 -7 50 -18 59 -30 24z"/>
<path d="M5013 5690 c-110 -23 -199 -107 -233 -219 -27 -88 -22 -151 19 -237
98 -207 374 -249 528 -81 54 59 88 163 80 243 -7 65 -43 147 -86 197 -66 75
-205 119 -308 97z m195 -61 c101 -50 153 -131 160 -249 6 -96 -19 -160 -87
-223 -138 -129 -362 -85 -451 90 -35 67 -36 197 -2 260 50 96 145 152 258 152
49 1 73 -5 122 -30z"/>
<path d="M5025 5631 c-106 -27 -180 -109 -194 -218 -10 -73 2 -126 42 -186 48
-71 112 -109 198 -115 114 -8 198 40 251 141 30 58 31 164 2 227 -53 112 -187
180 -299 151z m150 -46 c153 -62 192 -272 70 -384 -55 -51 -83 -62 -156 -63
-196 -3 -309 233 -183 381 71 83 169 107 269 66z"/>
<path d="M5064 5519 c-5 -8 -21 -22 -36 -32 -44 -28 -37 -87 13 -113 26 -13
29 -20 29 -64 0 -54 -4 -58 -38 -34 -13 9 -26 13 -29 10 -8 -8 17 -36 33 -36
7 0 22 -9 32 -21 17 -17 20 -18 25 -5 4 9 13 16 21 16 21 0 46 39 46 70 0 27
-30 62 -62 73 -14 5 -18 18 -18 53 0 40 2 45 18 39 34 -14 52 -17 52 -8 0 15
-23 33 -42 33 -9 0 -21 7 -26 16 -8 14 -11 15 -18 3z"/>
<path d="M2556 5674 c-77 -28 -143 -91 -184 -174 -22 -46 -27 -69 -27 -135 0
-71 4 -89 33 -147 37 -76 83 -120 160 -156 61 -28 148 -33 219 -13 140 39 244
193 230 342 -11 122 -95 238 -203 278 -65 25 -169 27 -228 5z m233 -46 c58
-28 117 -88 144 -146 32 -71 29 -180 -6 -248 -67 -131 -216 -194 -350 -148
-62 21 -144 96 -173 159 -28 60 -32 159 -9 225 55 156 243 231 394 158z"/>
<path d="M2589 5618 c-55 -14 -130 -77 -158 -133 -32 -62 -36 -180 -8 -232 52
-97 140 -153 242 -153 148 0 264 117 265 266 0 173 -168 299 -341 252z m188
-46 c77 -40 123 -117 123 -209 0 -218 -265 -318 -412 -155 -110 122 -57 320
101 379 48 18 137 10 188 -15z"/>
<path d="M2647 5506 c-4 -9 -13 -16 -21 -16 -8 0 -22 -10 -30 -22 -38 -54 -1
-114 76 -122 26 -2 52 -7 58 -11 18 -11 12 -63 -9 -74 -22 -12 -31 -5 -31 25
0 13 -4 26 -10 29 -6 4 -10 -7 -10 -26 0 -30 -2 -31 -31 -25 -41 8 -34 -16 8
-28 18 -6 36 -19 42 -30 5 -12 10 -15 10 -8 1 7 17 28 36 46 54 52 47 97 -21
127 -42 17 -44 20 -44 59 l0 42 32 -8 c29 -6 31 -5 19 10 -7 9 -20 16 -29 16
-8 0 -20 7 -27 16 -11 16 -12 16 -18 0z"/>
</g>
</svg>
